<svg id="图层_1" data-name="图层 1" xmlns="http://www.w3.org/2000/svg" viewBox="0 0 202.61 203.02"><path d="M295,140.09a33.33,33.33,0,0,1-32.21,33.23c-13,.66-25.82,2.34-38.06,7.17Q188.76,194.65,171.05,229A100.17,100.17,0,0,0,160,273.46c-.42,18.61-12.38,32.51-29.7,35.06s-35.41-11-37.41-28c-2.39-20.28,10.19-37.15,29.14-38.87,9.3-.84,18.35-2,25.72-8.7,10.17-9.2,14.32-20.43,10.86-33.73-3.66-14-13.12-22.42-27.41-25.07-7-1.3-14.21-1-20.75-4.64-11.93-6.59-18.2-16.7-18-30.11.25-15.16,7.92-26.08,22.2-31.23,13-4.68,25.07-2.11,35.08,7.7,7.18,7,10,16,10.42,25.92,1,24.91,29.22,39.84,50.78,26.78,11.48-6.95,16-17.68,16.73-30.68.85-15.16,10.86-27.11,25.45-30.9,14.2-3.69,32.69,4.06,38.27,18.24C293.32,130.18,294.92,134.86,295,140.09Zm-16.76-.56c-.14-8.88-8.19-16.81-17-16.76-9.12,0-17.14,8.28-16.88,17.35a17.14,17.14,0,0,0,17.3,16.6C270.4,156.58,278.34,148.36,278.21,139.53ZM126.05,258.16A17.17,17.17,0,0,0,108.82,275c-.15,8.84,7.58,16.54,16.8,16.76a16.78,16.78,0,1,0,.43-33.56Zm16.77-118.39a16.74,16.74,0,1,0-33.48-.28c0,9.4,7.66,17.31,16.81,17.26A17.1,17.1,0,0,0,142.82,139.77Z" transform="translate(-92.45 -105.93)" style="fill:#9b56f6"/><path d="M185.41,253.25c0-30.26,24.53-54.43,55.2-54.4,29.68,0,54.63,25.43,54.44,55.44-.18,30.27-25.18,55.36-55.71,54.65C206.79,308.18,184.64,282,185.41,253.25Z" transform="translate(-92.45 -105.93)" style="fill:#9b56f6"/></svg>